<svg xmlns="http://www.w3.org/2000/svg" version="1.0" width="1696.000000pt" height="608.000000pt" viewBox="0 0 1696.000000 608.000000" preserveAspectRatio="xMidYMid meet">

<g transform="translate(0.000000,608.000000) scale(0.100000,-0.100000)" fill="#ff0000" stroke="none">
<path d="M3772 5318 c30 -170 9 -386 -66 -683 -45 -175 -69 -277 -83 -340 -8 -38 -18 -79 -23 -90 -6 -11 -16 -49 -24 -85 -23 -101 -51 -215 -80 -330 -15 -58 -34 -130 -41 -160 -8 -30 -23 -92 -35 -137 -11 -46 -29 -118 -40 -160 -10 -43 -29 -114 -40 -158 -11 -44 -29 -114 -40 -155 -10 -41 -28 -113 -40 -160 -12 -47 -29 -121 -39 -166 -10 -44 -21 -86 -25 -92 -4 -6 -13 -42 -21 -79 -32 -152 -132 -542 -165 -643 -33 -103 -91 -210 -147 -270 -71 -78 -193 -140 -275 -140 -20 0 -40 -4 -43 -10 -4 -7 -238 -10 -670 -10 -614 0 -672 1 -782 20 -121 20 -185 35 -215 51 -10 5 -23 9 -29 9 -11 0 -67 22 -101 41 -40 21 -48 12 -48 -55 0 -36 -5 -86 -10 -113 -6 -26 -19 -178 -31 -338 -11 -159 -23 -312 -26 -338 l-6 -48 1449 4 c1576 4 1490 1 1719 61 181 48 288 96 435 197 264 182 460 468 579 849 18 58 36 114 41 125 4 11 17 61 29 110 12 50 28 115 36 145 7 30 23 96 35 145 12 50 26 99 30 110 5 11 14 47 20 80 6 33 15 69 19 80 9 19 57 212 106 420 12 55 31 127 40 160 9 33 23 92 31 130 9 39 19 79 24 90 5 11 12 36 15 55 4 19 13 58 21 85 13 48 22 81 66 260 11 44 28 114 38 155 11 41 27 107 35 145 9 39 20 79 25 90 5 11 14 47 20 80 6 33 14 67 17 75 4 8 12 40 19 70 21 98 57 235 65 252 5 10 9 27 9 37 0 46 97 316 155 434 53 105 132 236 156 257 3 3 8 13 12 23 6 16 -48 17 -1057 17 l-1063 0 19 -102z" fill="#ff0000"></path>
<path d="M6483 5407 c17 -44 28 -179 25 -292 -4 -117 -29 -323 -43 -345 -3 -4 -12 -39 -19 -77 -8 -37 -26 -113 -41 -168 -34 -130 -62 -244 -81 -325 -8 -36 -19 -78 -24 -95 -10 -30 -25 -88 -60 -235 -29 -120 -93 -374 -115 -460 -8 -30 -23 -93 -34 -140 -11 -47 -24 -101 -30 -120 -6 -19 -22 -84 -37 -145 -14 -60 -39 -164 -56 -230 -16 -66 -35 -140 -40 -165 -5 -25 -25 -100 -44 -167 -19 -68 -34 -131 -34 -142 0 -10 -6 -37 -14 -59 -18 -49 -11 -58 19 -29 13 12 38 33 56 47 29 22 133 105 183 146 66 55 479 305 596 361 157 75 238 113 243 113 3 0 34 13 69 29 35 16 88 36 118 46 30 9 64 20 75 25 81 34 316 100 412 115 57 9 62 22 16 34 -118 30 -372 93 -393 97 -61 12 -154 42 -157 51 -3 7 59 13 184 17 103 3 218 10 256 16 37 5 113 10 169 10 l102 0 -34 30 c-19 16 -39 29 -43 30 -4 0 -58 32 -118 70 -61 39 -112 70 -114 70 -2 0 -61 36 -132 80 -70 44 -135 84 -143 89 -8 5 -12 12 -8 16 7 7 61 -4 223 -46 44 -12 96 -25 115 -29 19 -5 76 -21 125 -36 101 -30 206 -56 211 -52 2 3 -153 192 -343 418 -70 83 -100 126 -91 128 8 2 51 -21 94 -50 43 -29 87 -57 97 -63 57 -33 279 -177 287 -186 3 -3 31 -23 64 -43 55 -35 58 -36 53 -14 -3 13 -22 61 -42 108 -20 47 -48 112 -62 145 -14 33 -34 78 -43 100 -35 81 -102 276 -97 281 7 7 27 -14 119 -127 42 -52 106 -130 142 -174 36 -44 93 -115 126 -157 34 -43 64 -78 67 -78 3 0 3 21 -1 48 -4 26 -12 124 -17 217 -11 203 -16 276 -25 374 -6 61 -4 73 7 69 8 -2 21 -24 30 -49 25 -69 30 -81 49 -124 10 -22 27 -67 38 -100 22 -65 57 -158 72 -190 5 -11 23 -58 41 -104 30 -81 32 -83 45 -60 7 13 14 33 14 44 0 11 19 90 41 175 22 85 50 202 63 260 32 141 42 166 61 150 10 -8 15 -46 19 -143 4 -123 22 -445 28 -512 3 -27 9 -20 70 75 37 58 93 144 124 193 31 48 65 103 75 122 45 84 113 179 117 163 2 -9 -8 -61 -22 -115 -14 -54 -39 -150 -56 -213 -16 -63 -44 -161 -61 -217 -17 -56 -29 -109 -27 -117 3 -15 32 7 193 149 33 29 112 94 175 143 63 50 129 102 145 117 25 23 31 24 33 10 2 -9 -9 -33 -25 -53 -16 -21 -54 -77 -83 -127 -30 -49 -57 -92 -61 -95 -10 -9 -124 -183 -162 -247 l-36 -62 67 25 c37 14 81 31 97 36 17 6 35 14 40 18 6 4 44 20 85 34 41 15 84 30 95 35 63 28 97 41 160 64 39 14 78 28 88 32 11 5 17 3 17 -6 -1 -8 -38 -42 -83 -76 -45 -34 -94 -73 -108 -85 -15 -13 -97 -79 -183 -147 -140 -111 -180 -149 -143 -136 11 4 115 9 562 31 128 6 139 5 126 -10 -7 -9 -21 -16 -30 -16 -14 0 -125 -38 -176 -60 -11 -5 -64 -25 -118 -45 -220 -81 -244 -75 288 -68 259 3 472 9 475 13 3 4 66 10 140 13 131 5 241 24 307 53 17 8 36 14 42 14 33 0 145 82 223 163 40 42 107 159 139 245 5 12 13 32 19 45 9 21 31 103 51 197 6 25 14 54 19 65 5 11 16 56 25 100 9 44 20 89 24 100 19 43 73 295 92 430 23 152 -7 323 -76 441 -49 83 -189 186 -298 220 -29 9 -61 20 -72 24 -31 13 -161 39 -254 50 -55 6 -811 10 -2174 10 -1722 0 -2088 -2 -2084 -13z" fill="#ff0000"></path>
<path d="M12186 5358 c4 -35 11 -69 17 -76 12 -16 3 -304 -12 -347 -5 -16 -14 -57 -19 -90 -14 -86 -74 -343 -162 -695 -12 -47 -31 -121 -42 -165 -11 -44 -28 -115 -39 -157 -44 -176 -60 -238 -84 -338 -14 -58 -32 -130 -40 -160 -8 -30 -23 -91 -34 -135 -11 -44 -30 -116 -42 -160 -27 -104 -56 -220 -79 -320 -11 -44 -31 -125 -45 -180 -30 -113 -46 -175 -73 -290 -46 -191 -54 -222 -64 -260 -5 -22 -13 -47 -18 -55 -4 -9 -11 -36 -14 -60 -4 -25 -11 -54 -16 -65 -5 -11 -13 -40 -19 -65 -5 -25 -22 -90 -36 -145 -14 -55 -32 -125 -40 -155 -31 -123 -37 -146 -45 -165 -5 -11 -16 -42 -25 -70 -8 -27 -19 -59 -24 -70 -5 -11 -23 -56 -42 -100 -36 -88 -112 -223 -165 -298 -19 -26 -34 -50 -34 -55 0 -4 179 -6 398 -5 218 0 693 2 1056 2 l659 1 -8 33 c-16 76 -20 130 -18 265 1 79 6 148 11 155 5 7 12 43 16 80 4 38 11 76 15 85 5 9 17 60 26 112 10 52 21 102 25 110 5 8 16 49 25 90 32 137 53 223 95 385 23 88 50 196 60 240 16 70 80 330 112 453 l11 42 798 0 c439 0 800 -4 803 -9 3 -4 43 -11 88 -15 91 -8 221 -31 253 -46 38 -18 140 -47 150 -43 6 2 23 54 38 116 46 184 76 309 91 367 8 30 24 93 36 140 12 47 28 110 35 140 7 30 24 101 39 157 14 56 26 105 26 108 0 9 -71 -4 -85 -15 -5 -4 -28 -11 -50 -15 -22 -4 -44 -10 -50 -15 -5 -4 -32 -11 -60 -15 -27 -4 -75 -13 -105 -21 -30 -8 -73 -14 -95 -14 -23 0 -47 -6 -53 -12 -10 -10 -194 -14 -834 -16 l-820 -3 5 28 c2 15 14 66 25 113 12 47 30 126 42 175 11 50 25 104 30 120 10 30 25 91 61 240 11 44 27 107 35 140 9 33 24 97 34 142 10 45 23 98 30 117 l12 36 691 2 c381 2 766 2 857 2 227 -2 501 -35 595 -73 62 -25 128 -42 136 -34 4 4 15 87 24 183 9 96 20 218 25 270 6 52 16 173 23 268 l12 172 -2068 0 -2068 0 7 -62z" fill="#ff0000"></path>
<path d="M10300 3030 c0 -6 -123 -11 -322 -14 -921 -12 -1980 -47 -2038 -68 -8 -3 -60 -11 -115 -18 -55 -7 -109 -15 -120 -17 -11 -3 -47 -9 -80 -14 -33 -6 -69 -14 -80 -19 -11 -5 -56 -16 -100 -26 -44 -9 -84 -20 -89 -25 -6 -5 -18 -9 -27 -9 -17 0 -239 -71 -294 -95 -16 -7 -61 -25 -100 -40 -64 -26 -239 -104 -276 -124 -9 -5 -60 -33 -115 -61 -54 -29 -118 -66 -141 -81 -23 -16 -44 -29 -46 -29 -3 0 -41 -25 -86 -55 -45 -30 -84 -55 -86 -55 -6 0 -118 -80 -298 -212 -79 -58 -137 -117 -137 -140 0 -11 -6 -40 -14 -66 -8 -26 -26 -101 -41 -167 -15 -66 -31 -129 -35 -140 -5 -11 -18 -61 -29 -111 -23 -103 -81 -283 -116 -359 -12 -27 -26 -61 -30 -75 -14 -45 -82 -166 -135 -240 -28 -39 -53 -77 -56 -84 -4 -11 1472 -12 3531 -2 831 4 813 3 1009 50 277 68 508 214 650 413 46 64 138 250 161 323 9 30 20 64 25 75 11 28 37 124 60 225 35 156 82 345 90 365 12 31 51 191 68 280 8 44 18 89 23 100 15 38 21 161 9 224 -16 90 -55 147 -147 218 -38 29 -158 63 -225 63 -27 0 -48 5 -48 10 0 6 -40 10 -100 10 -58 0 -100 -4 -100 -10z m-1245 -345 c49 -49 55 -74 35 -157 -6 -24 -29 -117 -51 -208 -40 -162 -67 -271 -94 -380 -8 -30 -21 -86 -30 -125 -9 -38 -20 -79 -25 -90 -5 -11 -16 -46 -26 -77 -28 -95 -91 -162 -163 -173 -20 -4 -44 -10 -53 -16 -18 -9 -1170 -13 -1180 -4 -3 3 1 31 9 63 7 31 20 84 28 117 7 33 23 98 35 145 11 47 29 121 39 165 11 44 29 116 41 160 12 44 36 136 52 205 17 69 38 154 48 190 9 36 25 99 35 140 10 41 20 78 22 83 2 4 281 7 619 7 l615 0 44 -45z" fill="#ff0000"></path>
</g>
</svg>